<?xml version="1.0" encoding="UTF-8"?>
<svg xmlns="http://www.w3.org/2000/svg" xmlns:xlink="http://www.w3.org/1999/xlink" width="113pt" height="77pt" viewBox="0 0 113 77" version="1.1">
<g id="surface7476">
<path style="fill-rule:evenodd;fill:rgb(100%,100%,100%);fill-opacity:1;stroke-width:0.5;stroke-linecap:butt;stroke-linejoin:round;stroke:rgb(100%,100%,100%);stroke-opacity:1;stroke-miterlimit:10;" d="M 75.109375 756.011719 L 71.308594 748.410156 L 109.316406 748.410156 L 103.613281 759.8125 L 77.007813 759.8125 L 75.109375 756.011719 L 77.007813 754.109375 L 75.109375 750.308594 L 105.515625 750.308594 L 101.714844 757.910156 L 78.910156 757.910156 L 77.007813 754.109375 " transform="matrix(1,0,0,-1,-42,813)"/>
<path style="fill-rule:evenodd;fill:rgb(100%,100%,100%);fill-opacity:1;stroke-width:0.5;stroke-linecap:butt;stroke-linejoin:round;stroke:rgb(100%,100%,100%);stroke-opacity:1;stroke-miterlimit:10;" d="M 88.410156 769.3125 L 88.410156 765.511719 L 86.511719 765.511719 C 85.460938 765.511719 84.609375 764.660156 84.609375 763.613281 L 84.609375 759.8125 C 84.609375 758.761719 85.460938 757.910156 86.511719 757.910156 L 94.113281 757.910156 C 95.160156 757.910156 96.011719 758.761719 96.011719 759.8125 L 96.011719 763.613281 C 96.011719 764.660156 95.160156 765.511719 94.113281 765.511719 L 92.210938 765.511719 L 92.210938 769.3125 Z M 88.410156 769.3125 " transform="matrix(1,0,0,-1,-42,813)"/>
<path style="fill:none;stroke-width:0.5;stroke-linecap:butt;stroke-linejoin:round;stroke:rgb(100%,100%,100%);stroke-opacity:1;stroke-miterlimit:10;" d="M 94.109375 761.710938 C 94.109375 763.8125 92.410156 765.511719 90.308594 765.511719 C 88.210938 765.511719 86.507813 763.8125 86.507813 761.710938 C 86.507813 759.613281 88.210938 757.910156 90.308594 757.910156 C 92.410156 757.910156 94.109375 759.613281 94.109375 761.710938 " transform="matrix(1,0,0,-1,-42,813)"/>
<path style="fill-rule:evenodd;fill:rgb(100%,100%,100%);fill-opacity:1;stroke-width:0.5;stroke-linecap:butt;stroke-linejoin:round;stroke:rgb(100%,100%,100%);stroke-opacity:1;stroke-miterlimit:10;" d="M 92.210938 761.710938 C 92.210938 762.761719 91.359375 763.613281 90.308594 763.613281 C 89.261719 763.613281 88.410156 762.761719 88.410156 761.710938 C 88.410156 760.664063 89.261719 759.8125 90.308594 759.8125 C 91.359375 759.8125 92.210938 760.664063 92.210938 761.710938 " transform="matrix(1,0,0,-1,-42,813)"/>
<path style="fill-rule:evenodd;fill:rgb(100%,100%,100%);fill-opacity:1;stroke-width:0.4;stroke-linecap:butt;stroke-linejoin:round;stroke:rgb(39.9%,79.9%,100%);stroke-opacity:1;stroke-miterlimit:10;" d="M 105.574219 759.148438 L 94.171875 736.339844 L 143.582031 736.339844 L 154.984375 759.148438 Z M 105.574219 759.148438 " transform="matrix(1,0,0,-1,-42,813)"/>
<path style="fill-rule:evenodd;fill:rgb(100%,100%,100%);fill-opacity:1;stroke-width:0.4;stroke-linecap:butt;stroke-linejoin:round;stroke:rgb(39.9%,79.9%,100%);stroke-opacity:1;stroke-miterlimit:10;" d="M 107.472656 757.246094 L 97.972656 738.242188 L 141.683594 738.242188 L 151.183594 757.246094 Z M 107.472656 757.246094 " transform="matrix(1,0,0,-1,-42,813)"/>
<path style="fill-rule:evenodd;fill:rgb(100%,100%,100%);fill-opacity:1;stroke-width:0.4;stroke-linecap:butt;stroke-linejoin:round;stroke:rgb(39.9%,79.9%,100%);stroke-opacity:1;stroke-miterlimit:10;" d="M 109.375 755.347656 L 101.773438 740.140625 L 139.78125 740.140625 L 147.382813 755.347656 Z M 109.375 755.347656 " transform="matrix(1,0,0,-1,-42,813)"/>
<path style="fill-rule:evenodd;fill:rgb(100%,100%,100%);fill-opacity:1;stroke-width:0.4;stroke-linecap:butt;stroke-linejoin:round;stroke:rgb(39.9%,79.9%,100%);stroke-opacity:1;stroke-miterlimit:10;" d="M 111.273438 753.445313 L 105.574219 742.042969 L 137.882813 742.042969 L 143.582031 753.445313 Z M 111.273438 753.445313 " transform="matrix(1,0,0,-1,-42,813)"/>
<path style="fill-rule:evenodd;fill:rgb(100%,100%,100%);fill-opacity:1;stroke-width:0.4;stroke-linecap:butt;stroke-linejoin:round;stroke:rgb(39.9%,79.9%,100%);stroke-opacity:1;stroke-miterlimit:10;" d="M 113.175781 751.546875 L 109.375 743.945313 L 135.980469 743.945313 L 139.78125 751.546875 Z M 113.175781 751.546875 " transform="matrix(1,0,0,-1,-42,813)"/>
<path style="fill-rule:evenodd;fill:rgb(100%,100%,100%);fill-opacity:1;stroke-width:0.4;stroke-linecap:butt;stroke-linejoin:round;stroke:rgb(39.9%,79.9%,100%);stroke-opacity:1;stroke-miterlimit:10;" d="M 115.074219 749.644531 L 113.175781 745.84375 L 134.082031 745.84375 L 135.980469 749.644531 Z M 115.074219 749.644531 " transform="matrix(1,0,0,-1,-42,813)"/>
<path style="fill-rule:evenodd;fill:rgb(100%,100%,100%);fill-opacity:1;stroke-width:0.4;stroke-linecap:butt;stroke-linejoin:round;stroke:rgb(39.9%,79.9%,100%);stroke-opacity:1;stroke-miterlimit:10;" d="M 54.261719 759.148438 L 42.859375 736.339844 L 92.269531 736.339844 L 103.671875 759.148438 Z M 54.261719 759.148438 " transform="matrix(1,0,0,-1,-42,813)"/>
<path style="fill-rule:evenodd;fill:rgb(100%,100%,100%);fill-opacity:1;stroke-width:0.4;stroke-linecap:butt;stroke-linejoin:round;stroke:rgb(39.9%,79.9%,100%);stroke-opacity:1;stroke-miterlimit:10;" d="M 56.164063 757.246094 L 46.660156 738.242188 L 90.371094 738.242188 L 99.871094 757.246094 Z M 56.164063 757.246094 " transform="matrix(1,0,0,-1,-42,813)"/>
<path style="fill-rule:evenodd;fill:rgb(100%,100%,100%);fill-opacity:1;stroke-width:0.4;stroke-linecap:butt;stroke-linejoin:round;stroke:rgb(39.9%,79.9%,100%);stroke-opacity:1;stroke-miterlimit:10;" d="M 58.0625 755.347656 L 50.460938 740.140625 L 88.46875 740.140625 L 96.070313 755.347656 Z M 58.0625 755.347656 " transform="matrix(1,0,0,-1,-42,813)"/>
<path style="fill-rule:evenodd;fill:rgb(100%,100%,100%);fill-opacity:1;stroke-width:0.4;stroke-linecap:butt;stroke-linejoin:round;stroke:rgb(39.9%,79.9%,100%);stroke-opacity:1;stroke-miterlimit:10;" d="M 59.964844 753.445313 L 54.261719 742.042969 L 86.570313 742.042969 L 92.269531 753.445313 Z M 59.964844 753.445313 " transform="matrix(1,0,0,-1,-42,813)"/>
<path style="fill-rule:evenodd;fill:rgb(100%,100%,100%);fill-opacity:1;stroke-width:0.4;stroke-linecap:butt;stroke-linejoin:round;stroke:rgb(39.9%,79.9%,100%);stroke-opacity:1;stroke-miterlimit:10;" d="M 61.863281 751.546875 L 58.0625 743.945313 L 84.667969 743.945313 L 88.46875 751.546875 Z M 61.863281 751.546875 " transform="matrix(1,0,0,-1,-42,813)"/>
<path style="fill-rule:evenodd;fill:rgb(100%,100%,100%);fill-opacity:1;stroke-width:0.4;stroke-linecap:butt;stroke-linejoin:round;stroke:rgb(39.9%,79.9%,100%);stroke-opacity:1;stroke-miterlimit:10;" d="M 63.765625 749.644531 L 61.863281 745.84375 L 82.769531 745.84375 L 84.667969 749.644531 Z M 63.765625 749.644531 " transform="matrix(1,0,0,-1,-42,813)"/>
<path style="fill-rule:evenodd;fill:rgb(100%,100%,0%);fill-opacity:1;stroke-width:0.5;stroke-linecap:butt;stroke-linejoin:round;stroke:rgb(0%,0%,0%);stroke-opacity:1;stroke-miterlimit:10;" d="M 74.015625 747.746094 L 80.203125 757.464844 L 75.785156 757.464844 L 78.4375 762.765625 L 74.015625 762.765625 L 71.367188 754.8125 L 75.785156 754.8125 Z M 74.015625 747.746094 " transform="matrix(1,0,0,-1,-42,813)"/>
<path style="fill-rule:evenodd;fill:rgb(75.2%,75.2%,75.2%);fill-opacity:1;stroke-width:0.5;stroke-linecap:butt;stroke-linejoin:round;stroke:rgb(0%,0%,0%);stroke-opacity:1;stroke-miterlimit:10;" d="M 62.453125 770.082031 L 57.390625 763.253906 L 94.820313 756.65625 L 91.1875 768.875 L 64.984375 773.496094 L 62.453125 770.082031 L 63.996094 767.882813 L 61.464844 764.46875 L 91.410156 759.1875 L 88.984375 767.332031 L 66.527344 771.292969 L 63.996094 767.882813 " transform="matrix(1,0,0,-1,-42,813)"/>
<path style="fill-rule:evenodd;fill:rgb(0%,0%,0%);fill-opacity:1;stroke-width:0.5;stroke-linecap:butt;stroke-linejoin:round;stroke:rgb(0%,0%,0%);stroke-opacity:1;stroke-miterlimit:10;" d="M 47.808594 807.398438 C 46.773438 807.585938 46.089844 808.578125 46.277344 809.609375 C 46.460938 810.636719 47.441406 811.320313 48.464844 811.140625 L 57.824219 809.492188 C 58.152344 811.035156 59.667969 812.015625 61.210938 811.6875 C 62.671875 811.375 63.644531 809.984375 63.441406 808.503906 L 72.796875 806.851563 C 73.902344 807.074219 74.976563 806.355469 75.195313 805.25 C 75.414063 804.148438 74.699219 803.074219 73.59375 802.851563 C 73.09375 802.753906 72.574219 802.84375 72.136719 803.109375 L 62.777344 804.761719 L 62.117188 801.015625 C 63.367188 800.796875 63.878906 800.0625 63.660156 798.816406 C 76.378906 798.320313 88.972656 796.101563 101.089844 792.214844 C 101.3125 793.460938 102.042969 793.976563 103.292969 793.757813 L 103.953125 797.5 L 94.59375 799.152344 C 93.558594 799.316406 92.855469 800.292969 93.023438 801.328125 C 93.1875 802.363281 94.164063 803.070313 95.199219 802.902344 C 95.21875 802.898438 95.238281 802.894531 95.253906 802.890625 L 104.613281 801.242188 C 104.945313 802.78125 106.460938 803.761719 108.003906 803.433594 C 109.460938 803.117188 110.429688 801.730469 110.226563 800.253906 L 119.585938 798.601563 C 120.671875 798.714844 121.640625 797.921875 121.75 796.835938 C 121.859375 795.753906 121.070313 794.785156 119.984375 794.671875 C 119.621094 794.636719 119.253906 794.699219 118.925781 794.859375 L 109.570313 796.507813 L 108.90625 792.765625 C 109.984375 792.503906 110.496094 791.769531 110.449219 790.566406 L 110.121094 788.695313 L 111.992188 788.363281 C 112.988281 787.980469 113.488281 786.863281 113.105469 785.863281 C 112.824219 785.125 112.121094 784.632813 111.332031 784.621094 C 104.511719 784.011719 97.789063 782.605469 91.296875 780.433594 L 93.71875 772.289063 L 92.066406 762.929688 L 90.199219 763.261719 L 91.515625 770.746094 L 89.09375 778.890625 C 87.847656 779.113281 87.222656 779.222656 87.222656 779.222656 L 79.734375 780.542969 L 72.25 781.863281 C 72.25 781.863281 71.625 781.972656 70.378906 782.191406 L 65.316406 775.367188 L 63.996094 767.882813 L 62.125 768.210938 L 63.773438 777.566406 L 68.835938 784.394531 C 63.589844 788.8125 57.734375 792.449219 51.441406 795.179688 C 50.410156 795.363281 49.71875 796.347656 49.898438 797.382813 C 50.082031 798.414063 51.066406 799.105469 52.101563 798.925781 L 53.972656 798.59375 L 54.300781 800.464844 C 54.523438 801.710938 55.257813 802.226563 56.503906 802.007813 L 57.164063 805.75 Z M 47.808594 807.398438 " transform="matrix(1,0,0,-1,-42,813)"/>
<path style="fill-rule:evenodd;fill:rgb(13.2%,13.2%,13.2%);fill-opacity:1;stroke-width:0.5;stroke-linecap:butt;stroke-linejoin:round;stroke:rgb(0%,0%,0%);stroke-opacity:1;stroke-miterlimit:10;" d="M 77.863281 780.875 L 77.203125 777.128906 L 75.332031 777.460938 C 74.296875 777.640625 73.3125 776.953125 73.132813 775.917969 L 72.472656 772.175781 C 72.289063 771.140625 72.980469 770.15625 74.011719 769.972656 L 81.5 768.65625 C 82.535156 768.472656 83.519531 769.160156 83.699219 770.195313 L 84.363281 773.941406 C 84.542969 774.972656 83.851563 775.957031 82.820313 776.140625 L 80.949219 776.472656 L 81.609375 780.210938 Z M 77.863281 780.875 " transform="matrix(1,0,0,-1,-42,813)"/>
<path style="fill:none;stroke-width:0.5;stroke-linecap:butt;stroke-linejoin:round;stroke:rgb(0%,0%,0%);stroke-opacity:1;stroke-miterlimit:10;" d="M 82.15625 772.394531 C 82.523438 774.464844 81.140625 776.433594 79.074219 776.800781 C 77.007813 777.164063 75.035156 775.785156 74.671875 773.71875 C 74.304688 771.648438 75.6875 769.679688 77.753906 769.3125 C 79.820313 768.949219 81.792969 770.332031 82.15625 772.394531 " transform="matrix(1,0,0,-1,-42,813)"/>
<path style="fill-rule:evenodd;fill:rgb(100%,100%,0%);fill-opacity:1;stroke-width:0.5;stroke-linecap:butt;stroke-linejoin:round;stroke:rgb(0%,0%,0%);stroke-opacity:1;stroke-miterlimit:10;" d="M 80.285156 772.726563 C 80.46875 773.761719 79.777344 774.746094 78.742188 774.929688 C 77.710938 775.109375 76.726563 774.421875 76.542969 773.386719 C 76.359375 772.351563 77.050781 771.367188 78.085938 771.1875 C 79.117188 771.003906 80.105469 771.691406 80.285156 772.726563 " transform="matrix(1,0,0,-1,-42,813)"/>
<path style="fill:none;stroke-width:0.5;stroke-linecap:butt;stroke-linejoin:round;stroke:rgb(0%,0%,0%);stroke-opacity:1;stroke-miterlimit:10;" d="M 112 776 L 142 776 " transform="matrix(1,0,0,-1,-42,813)"/>
<path style="fill-rule:evenodd;fill:rgb(0%,0%,0%);fill-opacity:1;stroke-width:0.5;stroke-linecap:butt;stroke-linejoin:round;stroke:rgb(0%,0%,0%);stroke-opacity:1;stroke-miterlimit:10;" d="M 142 776 L 135 778.332031 L 135 773.667969 Z M 142 776 " transform="matrix(1,0,0,-1,-42,813)"/>
</g>
</svg>
