<?xml version="1.0" encoding="UTF-8"?>
<svg xmlns="http://www.w3.org/2000/svg" xmlns:xlink="http://www.w3.org/1999/xlink" width="60pt" height="41pt" viewBox="0 0 60 41" version="1.1">
<g id="surface2144">
<path style="fill-rule:evenodd;fill:rgb(100%,100%,100%);fill-opacity:1;stroke-width:0.4;stroke-linecap:butt;stroke-linejoin:round;stroke:rgb(40%,80%,100%);stroke-opacity:1;stroke-miterlimit:10;" d="M 136 404 L 130 392 L 156 392 L 162 404 Z M 136 404 " transform="matrix(1,0,0,-1,-102,433)"/>
<path style="fill-rule:evenodd;fill:rgb(100%,100%,100%);fill-opacity:1;stroke-width:0.4;stroke-linecap:butt;stroke-linejoin:round;stroke:rgb(40%,80%,100%);stroke-opacity:1;stroke-miterlimit:10;" d="M 137 403 L 132 393 L 155 393 L 160 403 Z M 137 403 " transform="matrix(1,0,0,-1,-102,433)"/>
<path style="fill-rule:evenodd;fill:rgb(100%,100%,100%);fill-opacity:1;stroke-width:0.4;stroke-linecap:butt;stroke-linejoin:round;stroke:rgb(40%,80%,100%);stroke-opacity:1;stroke-miterlimit:10;" d="M 138 402 L 134 394 L 154 394 L 158 402 Z M 138 402 " transform="matrix(1,0,0,-1,-102,433)"/>
<path style="fill-rule:evenodd;fill:rgb(100%,100%,100%);fill-opacity:1;stroke-width:0.4;stroke-linecap:butt;stroke-linejoin:round;stroke:rgb(40%,80%,100%);stroke-opacity:1;stroke-miterlimit:10;" d="M 139 401 L 136 395 L 153 395 L 156 401 Z M 139 401 " transform="matrix(1,0,0,-1,-102,433)"/>
<path style="fill-rule:evenodd;fill:rgb(100%,100%,100%);fill-opacity:1;stroke-width:0.4;stroke-linecap:butt;stroke-linejoin:round;stroke:rgb(40%,80%,100%);stroke-opacity:1;stroke-miterlimit:10;" d="M 140 400 L 138 396 L 152 396 L 154 400 Z M 140 400 " transform="matrix(1,0,0,-1,-102,433)"/>
<path style="fill-rule:evenodd;fill:rgb(100%,100%,100%);fill-opacity:1;stroke-width:0.4;stroke-linecap:butt;stroke-linejoin:round;stroke:rgb(40%,80%,100%);stroke-opacity:1;stroke-miterlimit:10;" d="M 141 399 L 140 397 L 151 397 L 152 399 Z M 141 399 " transform="matrix(1,0,0,-1,-102,433)"/>
<path style="fill-rule:evenodd;fill:rgb(100%,100%,100%);fill-opacity:1;stroke-width:0.4;stroke-linecap:butt;stroke-linejoin:round;stroke:rgb(40%,80%,100%);stroke-opacity:1;stroke-miterlimit:10;" d="M 109 404 L 103 392 L 129 392 L 135 404 Z M 109 404 " transform="matrix(1,0,0,-1,-102,433)"/>
<path style="fill-rule:evenodd;fill:rgb(100%,100%,100%);fill-opacity:1;stroke-width:0.4;stroke-linecap:butt;stroke-linejoin:round;stroke:rgb(40%,80%,100%);stroke-opacity:1;stroke-miterlimit:10;" d="M 110 403 L 105 393 L 128 393 L 133 403 Z M 110 403 " transform="matrix(1,0,0,-1,-102,433)"/>
<path style="fill-rule:evenodd;fill:rgb(100%,100%,100%);fill-opacity:1;stroke-width:0.4;stroke-linecap:butt;stroke-linejoin:round;stroke:rgb(40%,80%,100%);stroke-opacity:1;stroke-miterlimit:10;" d="M 111 402 L 107 394 L 127 394 L 131 402 Z M 111 402 " transform="matrix(1,0,0,-1,-102,433)"/>
<path style="fill-rule:evenodd;fill:rgb(100%,100%,100%);fill-opacity:1;stroke-width:0.4;stroke-linecap:butt;stroke-linejoin:round;stroke:rgb(40%,80%,100%);stroke-opacity:1;stroke-miterlimit:10;" d="M 112 401 L 109 395 L 126 395 L 129 401 Z M 112 401 " transform="matrix(1,0,0,-1,-102,433)"/>
<path style="fill-rule:evenodd;fill:rgb(100%,100%,100%);fill-opacity:1;stroke-width:0.4;stroke-linecap:butt;stroke-linejoin:round;stroke:rgb(40%,80%,100%);stroke-opacity:1;stroke-miterlimit:10;" d="M 113 400 L 111 396 L 125 396 L 127 400 Z M 113 400 " transform="matrix(1,0,0,-1,-102,433)"/>
<path style="fill-rule:evenodd;fill:rgb(100%,100%,100%);fill-opacity:1;stroke-width:0.4;stroke-linecap:butt;stroke-linejoin:round;stroke:rgb(40%,80%,100%);stroke-opacity:1;stroke-miterlimit:10;" d="M 114 399 L 113 397 L 124 397 L 125 399 Z M 114 399 " transform="matrix(1,0,0,-1,-102,433)"/>
<path style="fill-rule:evenodd;fill:rgb(100%,100%,0%);fill-opacity:1;stroke-width:0.5;stroke-linecap:butt;stroke-linejoin:round;stroke:rgb(0%,0%,0%);stroke-opacity:1;stroke-miterlimit:10;" d="M 119.394531 398 L 122.648438 403.113281 L 120.324219 403.113281 L 121.71875 405.90625 L 119.394531 405.90625 L 118 401.71875 L 120.324219 401.71875 Z M 119.394531 398 " transform="matrix(1,0,0,-1,-102,433)"/>
<path style="fill-rule:evenodd;fill:rgb(75.3%,75.3%,75.3%);fill-opacity:1;stroke-width:0.5;stroke-linecap:butt;stroke-linejoin:round;stroke:rgb(0%,0%,0%);stroke-opacity:1;stroke-miterlimit:10;" d="M 113.308594 409.753906 L 110.644531 406.164063 L 130.34375 402.6875 L 128.429688 409.117188 L 114.640625 411.550781 L 113.308594 409.753906 L 114.121094 408.59375 L 112.789063 406.800781 L 128.546875 404.019531 L 127.269531 408.308594 L 115.453125 410.390625 L 114.121094 408.59375 " transform="matrix(1,0,0,-1,-102,433)"/>
<path style="fill-rule:evenodd;fill:rgb(0%,0%,0%);fill-opacity:1;stroke-width:0.5;stroke-linecap:butt;stroke-linejoin:round;stroke:rgb(0%,0%,0%);stroke-opacity:1;stroke-miterlimit:10;" d="M 105.601563 429.390625 C 104.296875 429.628906 104.640625 431.585938 105.949219 431.359375 L 110.875 430.492188 C 111.277344 432.378906 114.09375 431.882813 113.828125 429.972656 L 118.753906 429.101563 C 119.492188 429.25 120.148438 428.609375 120.019531 427.863281 C 119.886719 427.121094 119.050781 426.742188 118.40625 427.132813 L 113.480469 428 L 113.132813 426.03125 C 113.789063 425.917969 114.0625 425.53125 113.945313 424.875 C 120.636719 424.613281 127.265625 423.445313 133.640625 421.402344 C 133.757813 422.058594 134.144531 422.328125 134.800781 422.210938 L 135.148438 424.179688 L 130.222656 425.050781 C 129.671875 425.136719 129.300781 425.660156 129.398438 426.210938 C 129.492188 426.761719 130.023438 427.125 130.570313 427.019531 L 135.496094 426.152344 C 135.898438 428.035156 138.710938 427.539063 138.449219 425.628906 L 143.371094 424.761719 C 144.058594 424.832031 144.621094 424.226563 144.5 423.546875 C 144.382813 422.867188 143.644531 422.492188 143.027344 422.792969 L 138.101563 423.660156 L 137.753906 421.691406 C 138.320313 421.554688 138.589844 421.167969 138.566406 420.53125 L 138.390625 419.546875 L 139.375 419.375 C 140.421875 418.972656 140.148438 417.421875 139.03125 417.40625 L 139.027344 417.40625 C 135.441406 417.082031 131.902344 416.34375 128.488281 415.203125 L 129.761719 410.914063 L 128.894531 405.992188 L 127.910156 406.164063 L 128.601563 410.105469 L 127.328125 414.390625 C 126.671875 414.507813 126.34375 414.5625 126.34375 414.5625 L 122.402344 415.257813 L 118.464844 415.953125 C 118.464844 415.953125 118.136719 416.011719 117.480469 416.125 L 114.816406 412.535156 L 114.121094 408.597656 L 113.136719 408.769531 L 114.003906 413.695313 L 116.667969 417.285156 C 113.910156 419.609375 110.824219 421.523438 107.515625 422.960938 C 106.203125 423.191406 106.550781 425.164063 107.863281 424.929688 L 108.847656 424.757813 L 109.019531 425.742188 C 109.136719 426.398438 109.523438 426.667969 110.179688 426.554688 L 110.527344 428.523438 Z M 105.601563 429.390625 " transform="matrix(1,0,0,-1,-102,433)"/>
<path style="fill-rule:evenodd;fill:rgb(13.3%,13.3%,13.3%);fill-opacity:1;stroke-width:0.5;stroke-linecap:butt;stroke-linejoin:round;stroke:rgb(0%,0%,0%);stroke-opacity:1;stroke-miterlimit:10;" d="M 121.417969 415.433594 L 121.070313 413.464844 L 120.085938 413.636719 C 119.542969 413.734375 119.023438 413.371094 118.929688 412.824219 L 118.582031 410.855469 C 118.484375 410.3125 118.847656 409.792969 119.394531 409.699219 L 123.332031 409.003906 C 123.875 408.90625 124.394531 409.269531 124.492188 409.8125 L 124.835938 411.785156 C 124.933594 412.328125 124.570313 412.847656 124.027344 412.941406 L 123.042969 413.117188 L 123.390625 415.085938 Z M 121.417969 415.433594 " transform="matrix(1,0,0,-1,-102,433)"/>
<path style="fill:none;stroke-width:0.5;stroke-linecap:butt;stroke-linejoin:round;stroke:rgb(0%,0%,0%);stroke-opacity:1;stroke-miterlimit:10;" d="M 123.679688 410.972656 C 124.140625 413.597656 120.203125 414.292969 119.738281 411.667969 C 119.277344 409.039063 123.214844 408.347656 123.679688 410.972656 Z M 123.679688 410.972656 " transform="matrix(1,0,0,-1,-102,433)"/>
<path style="fill-rule:evenodd;fill:rgb(100%,100%,0%);fill-opacity:1;stroke-width:0.5;stroke-linecap:butt;stroke-linejoin:round;stroke:rgb(0%,0%,0%);stroke-opacity:1;stroke-miterlimit:10;" d="M 122.695313 411.144531 C 122.925781 412.460938 120.957031 412.804688 120.722656 411.492188 C 120.492188 410.179688 122.460938 409.832031 122.695313 411.144531 Z M 122.695313 411.144531 " transform="matrix(1,0,0,-1,-102,433)"/>
<path style="fill:none;stroke-width:0.5;stroke-linecap:butt;stroke-linejoin:round;stroke:rgb(0%,0%,0%);stroke-opacity:1;stroke-miterlimit:10;" d="M 140 412 L 156 412 " transform="matrix(1,0,0,-1,-102,433)"/>
<path style="fill-rule:evenodd;fill:rgb(0%,0%,0%);fill-opacity:1;stroke-width:0.5;stroke-linecap:butt;stroke-linejoin:round;stroke:rgb(0%,0%,0%);stroke-opacity:1;stroke-miterlimit:10;" d="M 156 412 L 153 413 L 153 411 Z M 156 412 " transform="matrix(1,0,0,-1,-102,433)"/>
</g>
</svg>
