<?xml version="1.0" encoding="UTF-8"?>
<svg xmlns="http://www.w3.org/2000/svg" xmlns:xlink="http://www.w3.org/1999/xlink" width="97pt" height="53pt" viewBox="0 0 97 53" version="1.1">
<g id="surface483">
<path style="fill-rule:evenodd;fill:rgb(100%,100%,100%);fill-opacity:1;stroke-width:0.5;stroke-linecap:butt;stroke-linejoin:round;stroke:rgb(100%,100%,100%);stroke-opacity:1;stroke-miterlimit:10;" d="M 64.117188 798.433594 L 63.199219 796.59375 L 72.394531 796.59375 L 71.015625 799.351563 L 64.578125 799.351563 L 64.117188 798.433594 L 64.578125 797.972656 L 64.117188 797.054688 L 71.476563 797.054688 L 70.554688 798.894531 L 65.039063 798.894531 L 64.578125 797.972656 " transform="matrix(1,0,0,-1,-7,833)"/>
<path style="fill-rule:evenodd;fill:rgb(100%,100%,100%);fill-opacity:1;stroke-width:0.5;stroke-linecap:butt;stroke-linejoin:round;stroke:rgb(100%,100%,100%);stroke-opacity:1;stroke-miterlimit:10;" d="M 59.058594 806.710938 C 58.804688 806.710938 58.601563 806.917969 58.601563 807.171875 C 58.601563 807.425781 58.808594 807.628906 59.058594 807.628906 L 61.359375 807.628906 C 61.371094 808.011719 61.691406 808.308594 62.074219 808.296875 C 62.433594 808.28125 62.726563 807.992188 62.738281 807.628906 L 65.039063 807.628906 C 65.292969 807.730469 65.578125 807.601563 65.675781 807.347656 C 65.773438 807.09375 65.648438 806.808594 65.394531 806.710938 C 65.28125 806.664063 65.152344 806.664063 65.039063 806.710938 L 62.738281 806.710938 L 62.738281 805.789063 C 63.046875 805.789063 63.199219 805.636719 63.199219 805.332031 C 66.25 805.746094 69.34375 805.746094 72.394531 805.332031 C 72.394531 805.636719 72.546875 805.789063 72.855469 805.789063 L 72.855469 806.710938 L 70.554688 806.710938 C 70.300781 806.707031 70.09375 806.910156 70.089844 807.164063 C 70.085938 807.417969 70.289063 807.625 70.542969 807.628906 C 70.546875 807.628906 70.550781 807.628906 70.554688 807.628906 L 72.855469 807.628906 C 72.867188 808.011719 73.191406 808.308594 73.570313 808.292969 C 73.929688 808.28125 74.222656 807.992188 74.234375 807.628906 L 76.535156 807.628906 C 76.789063 807.703125 77.050781 807.554688 77.125 807.300781 C 77.195313 807.046875 77.046875 806.78125 76.792969 806.710938 C 76.707031 806.6875 76.617188 806.6875 76.535156 806.710938 L 74.234375 806.710938 L 74.234375 805.789063 C 74.5 805.773438 74.65625 805.621094 74.695313 805.332031 L 74.695313 804.871094 L 75.152344 804.871094 C 75.40625 804.820313 75.574219 804.578125 75.523438 804.324219 C 75.488281 804.132813 75.34375 803.988281 75.152344 803.953125 C 73.554688 803.519531 72.011719 802.902344 70.554688 802.113281 L 71.476563 800.273438 L 71.476563 797.972656 L 71.015625 797.972656 L 71.015625 799.8125 L 70.097656 801.652344 C 69.789063 801.652344 69.636719 801.652344 69.636719 801.652344 L 65.957031 801.652344 C 65.957031 801.652344 65.804688 801.652344 65.496094 801.652344 L 64.578125 799.8125 L 64.578125 797.972656 L 64.117188 797.972656 L 64.117188 800.273438 L 65.039063 802.113281 C 63.601563 802.945313 62.054688 803.566406 60.4375 803.953125 C 60.183594 803.953125 59.980469 804.15625 59.980469 804.410156 C 59.980469 804.664063 60.183594 804.871094 60.4375 804.871094 L 60.898438 804.871094 L 60.898438 805.332031 C 60.898438 805.636719 61.050781 805.789063 61.359375 805.789063 L 61.359375 806.710938 Z M 59.058594 806.710938 " transform="matrix(1,0,0,-1,-7,833)"/>
<path style="fill-rule:evenodd;fill:rgb(100%,100%,100%);fill-opacity:1;stroke-width:0.5;stroke-linecap:butt;stroke-linejoin:round;stroke:rgb(100%,100%,100%);stroke-opacity:1;stroke-miterlimit:10;" d="M 67.335938 801.652344 L 67.335938 800.734375 L 66.875 800.734375 C 66.621094 800.734375 66.417969 800.527344 66.417969 800.273438 L 66.417969 799.351563 C 66.417969 799.097656 66.621094 798.894531 66.875 798.894531 L 68.714844 798.894531 C 68.96875 798.894531 69.175781 799.097656 69.175781 799.351563 L 69.175781 800.273438 C 69.175781 800.527344 68.96875 800.734375 68.714844 800.734375 L 68.257813 800.734375 L 68.257813 801.652344 Z M 67.335938 801.652344 " transform="matrix(1,0,0,-1,-7,833)"/>
<path style="fill-rule:evenodd;fill:rgb(100%,100%,100%);fill-opacity:1;stroke-width:0.5;stroke-linecap:butt;stroke-linejoin:round;stroke:rgb(100%,100%,100%);stroke-opacity:1;stroke-miterlimit:10;" d="M 69.175781 800.273438 L 69.175781 799.351563 L 69.636719 799.351563 L 69.636719 800.273438 Z M 69.175781 800.273438 " transform="matrix(1,0,0,-1,-7,833)"/>
<path style="fill-rule:evenodd;fill:rgb(100%,100%,100%);fill-opacity:1;stroke-width:0.5;stroke-linecap:butt;stroke-linejoin:round;stroke:rgb(100%,100%,100%);stroke-opacity:1;stroke-miterlimit:10;" d="M 72.855469 801.191406 L 72.855469 798.433594 L 70.097656 799.351563 L 70.097656 800.273438 Z M 72.855469 801.191406 " transform="matrix(1,0,0,-1,-7,833)"/>
<path style="fill-rule:evenodd;fill:rgb(100%,100%,100%);fill-opacity:1;stroke-width:0.3;stroke-linecap:butt;stroke-linejoin:round;stroke:rgb(0%,0%,0%);stroke-opacity:1;stroke-miterlimit:10;" d="M 21.8125 811.308594 L 36.527344 811.308594 L 36.527344 818.667969 L 21.8125 818.667969 Z M 21.8125 811.308594 " transform="matrix(1,0,0,-1,-7,833)"/>
<path style="fill-rule:evenodd;fill:rgb(100%,100%,100%);fill-opacity:1;stroke-width:0.3;stroke-linecap:butt;stroke-linejoin:round;stroke:rgb(0%,0%,0%);stroke-opacity:1;stroke-miterlimit:10;" d="M 21.8125 818.667969 L 36.527344 818.667969 L 38.367188 822.34375 L 23.652344 822.34375 L 21.8125 818.667969 " transform="matrix(1,0,0,-1,-7,833)"/>
<path style="fill-rule:evenodd;fill:rgb(100%,100%,100%);fill-opacity:1;stroke-width:0.3;stroke-linecap:butt;stroke-linejoin:round;stroke:rgb(0%,0%,0%);stroke-opacity:1;stroke-miterlimit:10;" d="M 36.527344 811.308594 L 36.527344 818.667969 L 38.367188 822.34375 L 38.367188 814.988281 Z M 36.527344 811.308594 " transform="matrix(1,0,0,-1,-7,833)"/>
<path style="fill-rule:evenodd;fill:rgb(100%,100%,100%);fill-opacity:1;stroke-width:0.3;stroke-linecap:butt;stroke-linejoin:round;stroke:rgb(0%,0%,0%);stroke-opacity:1;stroke-miterlimit:10;" d="M 16.296875 818.667969 L 16.296875 822.34375 L 23.652344 822.34375 L 23.652344 818.667969 Z M 16.296875 818.667969 " transform="matrix(1,0,0,-1,-7,833)"/>
<path style="fill-rule:evenodd;fill:rgb(100%,100%,100%);fill-opacity:1;stroke-width:0.3;stroke-linecap:butt;stroke-linejoin:round;stroke:rgb(0%,0%,0%);stroke-opacity:1;stroke-miterlimit:10;" d="M 16.296875 822.34375 L 23.652344 822.34375 L 25.492188 826.023438 L 18.132813 826.023438 Z M 16.296875 822.34375 " transform="matrix(1,0,0,-1,-7,833)"/>
<path style="fill-rule:evenodd;fill:rgb(100%,100%,100%);fill-opacity:1;stroke-width:0.3;stroke-linecap:butt;stroke-linejoin:round;stroke:rgb(0%,0%,0%);stroke-opacity:1;stroke-miterlimit:10;" d="M 23.652344 818.667969 L 23.652344 822.34375 L 25.492188 826.023438 L 25.492188 822.34375 Z M 23.652344 818.667969 " transform="matrix(1,0,0,-1,-7,833)"/>
<path style="fill-rule:evenodd;fill:rgb(100%,100%,100%);fill-opacity:1;stroke-width:0.3;stroke-linecap:butt;stroke-linejoin:round;stroke:rgb(0%,0%,0%);stroke-opacity:1;stroke-miterlimit:10;" d="M 34.6875 818.667969 L 34.6875 822.34375 L 42.046875 822.34375 L 42.046875 818.667969 Z M 34.6875 818.667969 " transform="matrix(1,0,0,-1,-7,833)"/>
<path style="fill-rule:evenodd;fill:rgb(100%,100%,100%);fill-opacity:1;stroke-width:0.3;stroke-linecap:butt;stroke-linejoin:round;stroke:rgb(0%,0%,0%);stroke-opacity:1;stroke-miterlimit:10;" d="M 34.6875 822.34375 L 42.046875 822.34375 L 43.886719 826.023438 L 36.527344 826.023438 Z M 34.6875 822.34375 " transform="matrix(1,0,0,-1,-7,833)"/>
<path style="fill-rule:evenodd;fill:rgb(100%,100%,100%);fill-opacity:1;stroke-width:0.3;stroke-linecap:butt;stroke-linejoin:round;stroke:rgb(0%,0%,0%);stroke-opacity:1;stroke-miterlimit:10;" d="M 42.046875 818.667969 L 42.046875 822.34375 L 43.886719 826.023438 L 43.886719 822.34375 Z M 42.046875 818.667969 " transform="matrix(1,0,0,-1,-7,833)"/>
<path style="fill-rule:evenodd;fill:rgb(100%,100%,100%);fill-opacity:1;stroke-width:0.3;stroke-linecap:butt;stroke-linejoin:round;stroke:rgb(0%,0%,0%);stroke-opacity:1;stroke-miterlimit:10;" d="M 32.847656 820.503906 C 33.101563 821.269531 32.074219 821.886719 30.550781 821.886719 C 29.027344 821.886719 27.585938 821.269531 27.332031 820.503906 C 27.078125 819.742188 28.105469 819.125 29.628906 819.125 C 31.152344 819.125 32.59375 819.742188 32.847656 820.503906 " transform="matrix(1,0,0,-1,-7,833)"/>
<path style="fill:none;stroke-width:0.3;stroke-linecap:butt;stroke-linejoin:round;stroke:rgb(0%,0%,0%);stroke-opacity:1;stroke-miterlimit:10;" d="M 28.25 819.585938 L 29.171875 821.425781 " transform="matrix(1,0,0,-1,-7,833)"/>
<path style="fill:none;stroke-width:0.3;stroke-linecap:butt;stroke-linejoin:round;stroke:rgb(0%,0%,0%);stroke-opacity:1;stroke-miterlimit:10;" d="M 31.011719 819.585938 L 31.929688 821.425781 " transform="matrix(1,0,0,-1,-7,833)"/>
<path style="fill:none;stroke-width:0.3;stroke-linecap:butt;stroke-linejoin:round;stroke:rgb(0%,0%,0%);stroke-opacity:1;stroke-miterlimit:10;" d="M 28.710938 820.503906 L 31.46875 820.503906 " transform="matrix(1,0,0,-1,-7,833)"/>
<path style="fill-rule:evenodd;fill:rgb(50.1%,50.1%,50.1%);fill-opacity:1;stroke-width:0.4;stroke-linecap:butt;stroke-linejoin:round;stroke:rgb(0%,0%,0%);stroke-opacity:1;stroke-miterlimit:10;" d="M 94.46875 802.570313 L 94.46875 813.609375 L 103.664063 832 L 103.664063 820.964844 Z M 94.46875 802.570313 " transform="matrix(1,0,0,-1,-7,833)"/>
<path style="fill-rule:evenodd;fill:rgb(75.2%,75.2%,75.2%);fill-opacity:1;stroke-width:0.4;stroke-linecap:butt;stroke-linejoin:round;stroke:rgb(0%,0%,0%);stroke-opacity:1;stroke-miterlimit:10;" d="M 56.300781 813.609375 L 94.46875 813.609375 L 103.664063 832 L 65.496094 832 L 61.820313 824.644531 Z M 56.300781 813.609375 " transform="matrix(1,0,0,-1,-7,833)"/>
<path style="fill-rule:evenodd;fill:rgb(50.1%,50.1%,50.1%);fill-opacity:1;stroke-width:0.3;stroke-linecap:butt;stroke-linejoin:round;stroke:rgb(0%,0%,0%);stroke-opacity:1;stroke-miterlimit:10;" d="M 56.300781 813.609375 L 56.300781 802.570313 L 94.46875 802.570313 L 94.46875 813.609375 Z M 56.300781 813.609375 " transform="matrix(1,0,0,-1,-7,833)"/>
<path style="fill-rule:evenodd;fill:rgb(50.1%,50.1%,50.1%);fill-opacity:1;stroke-width:0.3;stroke-linecap:butt;stroke-linejoin:round;stroke:rgb(0%,0%,0%);stroke-opacity:1;stroke-miterlimit:10;" d="M 32.847656 791.535156 L 32.847656 780.5 L 83.429688 780.5 L 83.429688 791.535156 Z M 32.847656 791.535156 " transform="matrix(1,0,0,-1,-7,833)"/>
<path style="fill-rule:evenodd;fill:rgb(75.2%,75.2%,75.2%);fill-opacity:1;stroke-width:0.4;stroke-linecap:butt;stroke-linejoin:round;stroke:rgb(0%,0%,0%);stroke-opacity:1;stroke-miterlimit:10;" d="M 32.847656 791.535156 L 83.429688 791.535156 L 88.949219 802.570313 L 92.628906 809.929688 L 42.046875 809.929688 L 38.367188 802.570313 Z M 32.847656 791.535156 " transform="matrix(1,0,0,-1,-7,833)"/>
<path style="fill-rule:evenodd;fill:rgb(50.1%,50.1%,50.1%);fill-opacity:1;stroke-width:0.4;stroke-linecap:butt;stroke-linejoin:round;stroke:rgb(0%,0%,0%);stroke-opacity:1;stroke-miterlimit:10;" d="M 83.429688 780.5 L 83.429688 791.535156 L 92.628906 809.929688 L 92.628906 798.894531 Z M 83.429688 780.5 " transform="matrix(1,0,0,-1,-7,833)"/>
<path style="fill-rule:evenodd;fill:rgb(100%,100%,100%);fill-opacity:1;stroke-width:0.4;stroke-linecap:butt;stroke-linejoin:round;stroke:rgb(39.9%,79.9%,100%);stroke-opacity:1;stroke-miterlimit:10;" d="M 73.773438 797.515625 L 71.015625 791.996094 L 82.972656 791.996094 L 85.730469 797.515625 Z M 73.773438 797.515625 " transform="matrix(1,0,0,-1,-7,833)"/>
<path style="fill-rule:evenodd;fill:rgb(100%,100%,100%);fill-opacity:1;stroke-width:0.4;stroke-linecap:butt;stroke-linejoin:round;stroke:rgb(39.9%,79.9%,100%);stroke-opacity:1;stroke-miterlimit:10;" d="M 74.234375 797.054688 L 71.933594 792.457031 L 82.511719 792.457031 L 84.808594 797.054688 Z M 74.234375 797.054688 " transform="matrix(1,0,0,-1,-7,833)"/>
<path style="fill-rule:evenodd;fill:rgb(100%,100%,100%);fill-opacity:1;stroke-width:0.4;stroke-linecap:butt;stroke-linejoin:round;stroke:rgb(39.9%,79.9%,100%);stroke-opacity:1;stroke-miterlimit:10;" d="M 74.695313 796.59375 L 72.855469 792.914063 L 82.050781 792.914063 L 83.890625 796.59375 Z M 74.695313 796.59375 " transform="matrix(1,0,0,-1,-7,833)"/>
<path style="fill-rule:evenodd;fill:rgb(100%,100%,100%);fill-opacity:1;stroke-width:0.4;stroke-linecap:butt;stroke-linejoin:round;stroke:rgb(39.9%,79.9%,100%);stroke-opacity:1;stroke-miterlimit:10;" d="M 75.152344 796.132813 L 73.773438 793.375 L 81.589844 793.375 L 82.972656 796.132813 Z M 75.152344 796.132813 " transform="matrix(1,0,0,-1,-7,833)"/>
<path style="fill-rule:evenodd;fill:rgb(100%,100%,100%);fill-opacity:1;stroke-width:0.4;stroke-linecap:butt;stroke-linejoin:round;stroke:rgb(39.9%,79.9%,100%);stroke-opacity:1;stroke-miterlimit:10;" d="M 75.613281 795.675781 L 74.695313 793.835938 L 81.132813 793.835938 L 82.050781 795.675781 Z M 75.613281 795.675781 " transform="matrix(1,0,0,-1,-7,833)"/>
<path style="fill-rule:evenodd;fill:rgb(100%,100%,100%);fill-opacity:1;stroke-width:0.4;stroke-linecap:butt;stroke-linejoin:round;stroke:rgb(39.9%,79.9%,100%);stroke-opacity:1;stroke-miterlimit:10;" d="M 76.074219 795.214844 L 75.613281 794.296875 L 80.671875 794.296875 L 81.132813 795.214844 Z M 76.074219 795.214844 " transform="matrix(1,0,0,-1,-7,833)"/>
<path style="fill-rule:evenodd;fill:rgb(100%,100%,100%);fill-opacity:1;stroke-width:0.4;stroke-linecap:butt;stroke-linejoin:round;stroke:rgb(39.9%,79.9%,100%);stroke-opacity:1;stroke-miterlimit:10;" d="M 61.359375 797.515625 L 58.601563 791.996094 L 70.554688 791.996094 L 73.316406 797.515625 Z M 61.359375 797.515625 " transform="matrix(1,0,0,-1,-7,833)"/>
<path style="fill-rule:evenodd;fill:rgb(100%,100%,100%);fill-opacity:1;stroke-width:0.4;stroke-linecap:butt;stroke-linejoin:round;stroke:rgb(39.9%,79.9%,100%);stroke-opacity:1;stroke-miterlimit:10;" d="M 61.820313 797.054688 L 59.519531 792.457031 L 70.097656 792.457031 L 72.394531 797.054688 Z M 61.820313 797.054688 " transform="matrix(1,0,0,-1,-7,833)"/>
<path style="fill-rule:evenodd;fill:rgb(100%,100%,100%);fill-opacity:1;stroke-width:0.4;stroke-linecap:butt;stroke-linejoin:round;stroke:rgb(39.9%,79.9%,100%);stroke-opacity:1;stroke-miterlimit:10;" d="M 62.277344 796.59375 L 60.4375 792.914063 L 69.636719 792.914063 L 71.476563 796.59375 Z M 62.277344 796.59375 " transform="matrix(1,0,0,-1,-7,833)"/>
<path style="fill-rule:evenodd;fill:rgb(100%,100%,100%);fill-opacity:1;stroke-width:0.4;stroke-linecap:butt;stroke-linejoin:round;stroke:rgb(39.9%,79.9%,100%);stroke-opacity:1;stroke-miterlimit:10;" d="M 62.738281 796.132813 L 61.359375 793.375 L 69.175781 793.375 L 70.554688 796.132813 Z M 62.738281 796.132813 " transform="matrix(1,0,0,-1,-7,833)"/>
<path style="fill-rule:evenodd;fill:rgb(100%,100%,100%);fill-opacity:1;stroke-width:0.4;stroke-linecap:butt;stroke-linejoin:round;stroke:rgb(39.9%,79.9%,100%);stroke-opacity:1;stroke-miterlimit:10;" d="M 63.199219 795.675781 L 62.277344 793.835938 L 68.714844 793.835938 L 69.636719 795.675781 Z M 63.199219 795.675781 " transform="matrix(1,0,0,-1,-7,833)"/>
<path style="fill-rule:evenodd;fill:rgb(100%,100%,100%);fill-opacity:1;stroke-width:0.4;stroke-linecap:butt;stroke-linejoin:round;stroke:rgb(39.9%,79.9%,100%);stroke-opacity:1;stroke-miterlimit:10;" d="M 63.65625 795.214844 L 63.199219 794.296875 L 68.257813 794.296875 L 68.714844 795.214844 Z M 63.65625 795.214844 " transform="matrix(1,0,0,-1,-7,833)"/>
<path style="fill-rule:evenodd;fill:rgb(100%,100%,100%);fill-opacity:1;stroke-width:0.4;stroke-linecap:butt;stroke-linejoin:round;stroke:rgb(39.9%,79.9%,100%);stroke-opacity:1;stroke-miterlimit:10;" d="M 48.945313 797.515625 L 46.183594 791.996094 L 58.140625 791.996094 L 60.898438 797.515625 Z M 48.945313 797.515625 " transform="matrix(1,0,0,-1,-7,833)"/>
<path style="fill-rule:evenodd;fill:rgb(100%,100%,100%);fill-opacity:1;stroke-width:0.4;stroke-linecap:butt;stroke-linejoin:round;stroke:rgb(39.9%,79.9%,100%);stroke-opacity:1;stroke-miterlimit:10;" d="M 49.402344 797.054688 L 47.105469 792.457031 L 57.679688 792.457031 L 59.980469 797.054688 Z M 49.402344 797.054688 " transform="matrix(1,0,0,-1,-7,833)"/>
<path style="fill-rule:evenodd;fill:rgb(100%,100%,100%);fill-opacity:1;stroke-width:0.4;stroke-linecap:butt;stroke-linejoin:round;stroke:rgb(39.9%,79.9%,100%);stroke-opacity:1;stroke-miterlimit:10;" d="M 49.863281 796.59375 L 48.023438 792.914063 L 57.21875 792.914063 L 59.058594 796.59375 Z M 49.863281 796.59375 " transform="matrix(1,0,0,-1,-7,833)"/>
<path style="fill-rule:evenodd;fill:rgb(100%,100%,100%);fill-opacity:1;stroke-width:0.4;stroke-linecap:butt;stroke-linejoin:round;stroke:rgb(39.9%,79.9%,100%);stroke-opacity:1;stroke-miterlimit:10;" d="M 50.324219 796.132813 L 48.945313 793.375 L 56.761719 793.375 L 58.140625 796.132813 Z M 50.324219 796.132813 " transform="matrix(1,0,0,-1,-7,833)"/>
<path style="fill-rule:evenodd;fill:rgb(100%,100%,100%);fill-opacity:1;stroke-width:0.4;stroke-linecap:butt;stroke-linejoin:round;stroke:rgb(39.9%,79.9%,100%);stroke-opacity:1;stroke-miterlimit:10;" d="M 50.78125 795.675781 L 49.863281 793.835938 L 56.300781 793.835938 L 57.21875 795.675781 Z M 50.78125 795.675781 " transform="matrix(1,0,0,-1,-7,833)"/>
<path style="fill-rule:evenodd;fill:rgb(100%,100%,100%);fill-opacity:1;stroke-width:0.4;stroke-linecap:butt;stroke-linejoin:round;stroke:rgb(39.9%,79.9%,100%);stroke-opacity:1;stroke-miterlimit:10;" d="M 51.242188 795.214844 L 50.78125 794.296875 L 55.839844 794.296875 L 56.300781 795.214844 Z M 51.242188 795.214844 " transform="matrix(1,0,0,-1,-7,833)"/>
<path style="fill-rule:evenodd;fill:rgb(100%,100%,100%);fill-opacity:1;stroke-width:0.4;stroke-linecap:butt;stroke-linejoin:round;stroke:rgb(39.9%,79.9%,100%);stroke-opacity:1;stroke-miterlimit:10;" d="M 36.527344 797.515625 L 33.769531 791.996094 L 45.722656 791.996094 L 48.484375 797.515625 Z M 36.527344 797.515625 " transform="matrix(1,0,0,-1,-7,833)"/>
<path style="fill-rule:evenodd;fill:rgb(100%,100%,100%);fill-opacity:1;stroke-width:0.4;stroke-linecap:butt;stroke-linejoin:round;stroke:rgb(39.9%,79.9%,100%);stroke-opacity:1;stroke-miterlimit:10;" d="M 36.988281 797.054688 L 34.6875 792.457031 L 45.265625 792.457031 L 47.5625 797.054688 Z M 36.988281 797.054688 " transform="matrix(1,0,0,-1,-7,833)"/>
<path style="fill-rule:evenodd;fill:rgb(100%,100%,100%);fill-opacity:1;stroke-width:0.4;stroke-linecap:butt;stroke-linejoin:round;stroke:rgb(39.9%,79.9%,100%);stroke-opacity:1;stroke-miterlimit:10;" d="M 37.449219 796.59375 L 35.609375 792.914063 L 44.804688 792.914063 L 46.644531 796.59375 Z M 37.449219 796.59375 " transform="matrix(1,0,0,-1,-7,833)"/>
<path style="fill-rule:evenodd;fill:rgb(100%,100%,100%);fill-opacity:1;stroke-width:0.4;stroke-linecap:butt;stroke-linejoin:round;stroke:rgb(39.9%,79.9%,100%);stroke-opacity:1;stroke-miterlimit:10;" d="M 37.90625 796.132813 L 36.527344 793.375 L 44.34375 793.375 L 45.722656 796.132813 Z M 37.90625 796.132813 " transform="matrix(1,0,0,-1,-7,833)"/>
<path style="fill-rule:evenodd;fill:rgb(100%,100%,100%);fill-opacity:1;stroke-width:0.4;stroke-linecap:butt;stroke-linejoin:round;stroke:rgb(39.9%,79.9%,100%);stroke-opacity:1;stroke-miterlimit:10;" d="M 38.367188 795.675781 L 37.449219 793.835938 L 43.886719 793.835938 L 44.804688 795.675781 Z M 38.367188 795.675781 " transform="matrix(1,0,0,-1,-7,833)"/>
<path style="fill-rule:evenodd;fill:rgb(100%,100%,100%);fill-opacity:1;stroke-width:0.4;stroke-linecap:butt;stroke-linejoin:round;stroke:rgb(39.9%,79.9%,100%);stroke-opacity:1;stroke-miterlimit:10;" d="M 38.828125 795.214844 L 38.367188 794.296875 L 43.425781 794.296875 L 43.886719 795.214844 Z M 38.828125 795.214844 " transform="matrix(1,0,0,-1,-7,833)"/>
<path style="fill-rule:evenodd;fill:rgb(100%,100%,100%);fill-opacity:1;stroke-width:0.4;stroke-linecap:butt;stroke-linejoin:round;stroke:rgb(39.9%,79.9%,100%);stroke-opacity:1;stroke-miterlimit:10;" d="M 90.789063 831.542969 L 88.03125 826.023438 L 99.984375 826.023438 L 102.742188 831.542969 Z M 90.789063 831.542969 " transform="matrix(1,0,0,-1,-7,833)"/>
<path style="fill-rule:evenodd;fill:rgb(100%,100%,100%);fill-opacity:1;stroke-width:0.4;stroke-linecap:butt;stroke-linejoin:round;stroke:rgb(39.9%,79.9%,100%);stroke-opacity:1;stroke-miterlimit:10;" d="M 91.25 831.082031 L 88.949219 826.484375 L 99.523438 826.484375 L 101.824219 831.082031 Z M 91.25 831.082031 " transform="matrix(1,0,0,-1,-7,833)"/>
<path style="fill-rule:evenodd;fill:rgb(100%,100%,100%);fill-opacity:1;stroke-width:0.4;stroke-linecap:butt;stroke-linejoin:round;stroke:rgb(39.9%,79.9%,100%);stroke-opacity:1;stroke-miterlimit:10;" d="M 91.707031 830.621094 L 89.867188 826.945313 L 99.066406 826.945313 L 100.90625 830.621094 Z M 91.707031 830.621094 " transform="matrix(1,0,0,-1,-7,833)"/>
<path style="fill-rule:evenodd;fill:rgb(100%,100%,100%);fill-opacity:1;stroke-width:0.4;stroke-linecap:butt;stroke-linejoin:round;stroke:rgb(39.9%,79.9%,100%);stroke-opacity:1;stroke-miterlimit:10;" d="M 92.167969 830.164063 L 90.789063 827.402344 L 98.605469 827.402344 L 99.984375 830.164063 Z M 92.167969 830.164063 " transform="matrix(1,0,0,-1,-7,833)"/>
<path style="fill-rule:evenodd;fill:rgb(100%,100%,100%);fill-opacity:1;stroke-width:0.4;stroke-linecap:butt;stroke-linejoin:round;stroke:rgb(39.9%,79.9%,100%);stroke-opacity:1;stroke-miterlimit:10;" d="M 92.628906 829.703125 L 91.707031 827.863281 L 98.144531 827.863281 L 99.066406 829.703125 Z M 92.628906 829.703125 " transform="matrix(1,0,0,-1,-7,833)"/>
<path style="fill-rule:evenodd;fill:rgb(100%,100%,100%);fill-opacity:1;stroke-width:0.4;stroke-linecap:butt;stroke-linejoin:round;stroke:rgb(39.9%,79.9%,100%);stroke-opacity:1;stroke-miterlimit:10;" d="M 93.085938 829.242188 L 92.628906 828.324219 L 97.6875 828.324219 L 98.144531 829.242188 Z M 93.085938 829.242188 " transform="matrix(1,0,0,-1,-7,833)"/>
<path style="fill-rule:evenodd;fill:rgb(100%,100%,100%);fill-opacity:1;stroke-width:0.4;stroke-linecap:butt;stroke-linejoin:round;stroke:rgb(39.9%,79.9%,100%);stroke-opacity:1;stroke-miterlimit:10;" d="M 78.371094 831.542969 L 75.613281 826.023438 L 87.570313 826.023438 L 90.328125 831.542969 Z M 78.371094 831.542969 " transform="matrix(1,0,0,-1,-7,833)"/>
<path style="fill-rule:evenodd;fill:rgb(100%,100%,100%);fill-opacity:1;stroke-width:0.4;stroke-linecap:butt;stroke-linejoin:round;stroke:rgb(39.9%,79.9%,100%);stroke-opacity:1;stroke-miterlimit:10;" d="M 78.832031 831.082031 L 76.535156 826.484375 L 87.109375 826.484375 L 89.410156 831.082031 Z M 78.832031 831.082031 " transform="matrix(1,0,0,-1,-7,833)"/>
<path style="fill-rule:evenodd;fill:rgb(100%,100%,100%);fill-opacity:1;stroke-width:0.4;stroke-linecap:butt;stroke-linejoin:round;stroke:rgb(39.9%,79.9%,100%);stroke-opacity:1;stroke-miterlimit:10;" d="M 79.292969 830.621094 L 77.453125 826.945313 L 86.648438 826.945313 L 88.488281 830.621094 Z M 79.292969 830.621094 " transform="matrix(1,0,0,-1,-7,833)"/>
<path style="fill-rule:evenodd;fill:rgb(100%,100%,100%);fill-opacity:1;stroke-width:0.4;stroke-linecap:butt;stroke-linejoin:round;stroke:rgb(39.9%,79.9%,100%);stroke-opacity:1;stroke-miterlimit:10;" d="M 79.753906 830.164063 L 78.371094 827.402344 L 86.191406 827.402344 L 87.570313 830.164063 Z M 79.753906 830.164063 " transform="matrix(1,0,0,-1,-7,833)"/>
<path style="fill-rule:evenodd;fill:rgb(100%,100%,100%);fill-opacity:1;stroke-width:0.4;stroke-linecap:butt;stroke-linejoin:round;stroke:rgb(39.9%,79.9%,100%);stroke-opacity:1;stroke-miterlimit:10;" d="M 80.210938 829.703125 L 79.292969 827.863281 L 85.730469 827.863281 L 86.648438 829.703125 Z M 80.210938 829.703125 " transform="matrix(1,0,0,-1,-7,833)"/>
<path style="fill-rule:evenodd;fill:rgb(100%,100%,100%);fill-opacity:1;stroke-width:0.4;stroke-linecap:butt;stroke-linejoin:round;stroke:rgb(39.9%,79.9%,100%);stroke-opacity:1;stroke-miterlimit:10;" d="M 80.671875 829.242188 L 80.210938 828.324219 L 85.269531 828.324219 L 85.730469 829.242188 Z M 80.671875 829.242188 " transform="matrix(1,0,0,-1,-7,833)"/>
<path style="fill-rule:evenodd;fill:rgb(100%,100%,100%);fill-opacity:1;stroke-width:0.4;stroke-linecap:butt;stroke-linejoin:round;stroke:rgb(39.9%,79.9%,100%);stroke-opacity:1;stroke-miterlimit:10;" d="M 65.957031 831.542969 L 63.199219 826.023438 L 75.152344 826.023438 L 77.914063 831.542969 Z M 65.957031 831.542969 " transform="matrix(1,0,0,-1,-7,833)"/>
<path style="fill-rule:evenodd;fill:rgb(100%,100%,100%);fill-opacity:1;stroke-width:0.4;stroke-linecap:butt;stroke-linejoin:round;stroke:rgb(39.9%,79.9%,100%);stroke-opacity:1;stroke-miterlimit:10;" d="M 66.417969 831.082031 L 64.117188 826.484375 L 74.695313 826.484375 L 76.992188 831.082031 Z M 66.417969 831.082031 " transform="matrix(1,0,0,-1,-7,833)"/>
<path style="fill-rule:evenodd;fill:rgb(100%,100%,100%);fill-opacity:1;stroke-width:0.4;stroke-linecap:butt;stroke-linejoin:round;stroke:rgb(39.9%,79.9%,100%);stroke-opacity:1;stroke-miterlimit:10;" d="M 66.875 830.621094 L 65.039063 826.945313 L 74.234375 826.945313 L 76.074219 830.621094 Z M 66.875 830.621094 " transform="matrix(1,0,0,-1,-7,833)"/>
<path style="fill-rule:evenodd;fill:rgb(100%,100%,100%);fill-opacity:1;stroke-width:0.4;stroke-linecap:butt;stroke-linejoin:round;stroke:rgb(39.9%,79.9%,100%);stroke-opacity:1;stroke-miterlimit:10;" d="M 67.335938 830.164063 L 65.957031 827.402344 L 73.773438 827.402344 L 75.152344 830.164063 Z M 67.335938 830.164063 " transform="matrix(1,0,0,-1,-7,833)"/>
<path style="fill-rule:evenodd;fill:rgb(100%,100%,100%);fill-opacity:1;stroke-width:0.4;stroke-linecap:butt;stroke-linejoin:round;stroke:rgb(39.9%,79.9%,100%);stroke-opacity:1;stroke-miterlimit:10;" d="M 67.796875 829.703125 L 66.875 827.863281 L 73.316406 827.863281 L 74.234375 829.703125 Z M 67.796875 829.703125 " transform="matrix(1,0,0,-1,-7,833)"/>
<path style="fill-rule:evenodd;fill:rgb(100%,100%,100%);fill-opacity:1;stroke-width:0.4;stroke-linecap:butt;stroke-linejoin:round;stroke:rgb(39.9%,79.9%,100%);stroke-opacity:1;stroke-miterlimit:10;" d="M 68.257813 829.242188 L 67.796875 828.324219 L 72.855469 828.324219 L 73.316406 829.242188 Z M 68.257813 829.242188 " transform="matrix(1,0,0,-1,-7,833)"/>
<path style="fill:none;stroke-width:1;stroke-linecap:butt;stroke-linejoin:round;stroke:rgb(0%,0%,0%);stroke-opacity:1;stroke-miterlimit:10;" d="M 18.132813 802.113281 L 30.550781 826.945313 L 30.550781 821.425781 " transform="matrix(1,0,0,-1,-7,833)"/>
<path style="fill-rule:evenodd;fill:rgb(0%,0%,0%);fill-opacity:1;stroke-width:1;stroke-linecap:butt;stroke-linejoin:round;stroke:rgb(0%,0%,0%);stroke-opacity:1;stroke-miterlimit:10;" d="M 18.132813 802.113281 L 20.53125 804.511719 L 18.617188 805.46875 Z M 18.132813 802.113281 " transform="matrix(1,0,0,-1,-7,833)"/>
<path style="fill:none;stroke-width:1;stroke-linecap:butt;stroke-linejoin:round;stroke:rgb(0%,0%,0%);stroke-opacity:1;stroke-miterlimit:10;" d="M 47.105469 828.78125 L 100.445313 828.78125 L 83.429688 794.753906 L 23.191406 794.753906 " transform="matrix(1,0,0,-1,-7,833)"/>
<path style="fill-rule:evenodd;fill:rgb(0%,0%,0%);fill-opacity:1;stroke-width:1;stroke-linecap:butt;stroke-linejoin:round;stroke:rgb(0%,0%,0%);stroke-opacity:1;stroke-miterlimit:10;" d="M 47.105469 828.78125 L 50.324219 827.710938 L 50.324219 829.855469 Z M 47.105469 828.78125 " transform="matrix(1,0,0,-1,-7,833)"/>
<path style="fill-rule:evenodd;fill:rgb(75.2%,75.2%,75.2%);fill-opacity:1;stroke-width:0.5;stroke-linecap:butt;stroke-linejoin:round;stroke:rgb(0%,0%,0%);stroke-opacity:1;stroke-miterlimit:10;" d="M 12.195313 793.167969 L 10.96875 791.515625 L 20.027344 789.917969 L 19.148438 792.875 L 12.808594 793.996094 L 12.195313 793.167969 L 12.566406 792.636719 L 11.957031 791.808594 L 19.203125 790.53125 L 18.613281 792.503906 L 13.179688 793.460938 L 12.566406 792.636719 " transform="matrix(1,0,0,-1,-7,833)"/>
<path style="fill-rule:evenodd;fill:rgb(0%,0%,0%);fill-opacity:1;stroke-width:0.5;stroke-linecap:butt;stroke-linejoin:round;stroke:rgb(0%,0%,0%);stroke-opacity:1;stroke-miterlimit:10;" d="M 8.652344 802.199219 C 8.402344 802.242188 8.234375 802.484375 8.28125 802.734375 C 8.324219 802.980469 8.5625 803.144531 8.8125 803.105469 L 11.074219 802.703125 C 11.15625 803.078125 11.523438 803.316406 11.894531 803.234375 C 12.25 803.160156 12.484375 802.824219 12.433594 802.464844 L 14.699219 802.066406 C 14.964844 802.121094 15.226563 801.945313 15.277344 801.679688 C 15.332031 801.410156 15.15625 801.152344 14.890625 801.097656 C 14.769531 801.074219 14.644531 801.097656 14.539063 801.160156 L 12.273438 801.558594 L 12.113281 800.652344 C 12.417969 800.601563 12.539063 800.421875 12.488281 800.121094 C 15.566406 800 18.613281 799.464844 21.542969 798.523438 C 21.597656 798.824219 21.773438 798.949219 22.078125 798.898438 L 22.238281 799.800781 L 19.972656 800.203125 C 19.722656 800.242188 19.550781 800.476563 19.589844 800.730469 C 19.632813 800.980469 19.867188 801.148438 20.117188 801.109375 C 20.125 801.109375 20.128906 801.109375 20.132813 801.109375 L 22.394531 800.707031 C 22.476563 801.082031 22.84375 801.316406 23.214844 801.238281 C 23.570313 801.160156 23.804688 800.828125 23.753906 800.46875 L 26.019531 800.070313 C 26.28125 800.097656 26.515625 799.90625 26.542969 799.640625 C 26.570313 799.378906 26.378906 799.144531 26.117188 799.117188 C 26.027344 799.109375 25.9375 799.125 25.859375 799.164063 L 23.59375 799.5625 L 23.433594 798.65625 C 23.695313 798.59375 23.820313 798.417969 23.808594 798.125 L 23.730469 797.671875 L 24.183594 797.59375 C 24.421875 797.5 24.542969 797.230469 24.453125 796.988281 C 24.382813 796.808594 24.214844 796.6875 24.023438 796.6875 C 22.371094 796.539063 20.746094 796.199219 19.175781 795.671875 L 19.761719 793.703125 L 19.359375 791.4375 L 18.910156 791.519531 L 19.226563 793.328125 L 18.640625 795.300781 C 18.339844 795.355469 18.1875 795.378906 18.1875 795.378906 L 16.375 795.699219 L 14.566406 796.019531 C 14.566406 796.019531 14.414063 796.046875 14.113281 796.097656 L 12.886719 794.445313 L 12.566406 792.636719 L 12.117188 792.714844 L 12.515625 794.980469 L 13.738281 796.632813 C 12.472656 797.699219 11.054688 798.582031 9.53125 799.242188 C 9.28125 799.285156 9.113281 799.523438 9.15625 799.773438 C 9.203125 800.023438 9.441406 800.191406 9.691406 800.148438 L 10.144531 800.066406 L 10.222656 800.519531 C 10.277344 800.820313 10.453125 800.945313 10.753906 800.894531 L 10.914063 801.796875 Z M 8.652344 802.199219 " transform="matrix(1,0,0,-1,-7,833)"/>
<path style="fill-rule:evenodd;fill:rgb(13.2%,13.2%,13.2%);fill-opacity:1;stroke-width:0.5;stroke-linecap:butt;stroke-linejoin:round;stroke:rgb(0%,0%,0%);stroke-opacity:1;stroke-miterlimit:10;" d="M 15.925781 795.78125 L 15.765625 794.875 L 15.3125 794.953125 C 15.0625 794.996094 14.824219 794.832031 14.777344 794.582031 L 14.621094 793.675781 C 14.574219 793.425781 14.742188 793.1875 14.992188 793.140625 L 16.804688 792.824219 C 17.054688 792.777344 17.292969 792.945313 17.335938 793.195313 L 17.496094 794.101563 C 17.539063 794.351563 17.371094 794.589844 17.125 794.632813 L 16.671875 794.714844 L 16.828125 795.621094 Z M 15.925781 795.78125 " transform="matrix(1,0,0,-1,-7,833)"/>
<path style="fill:none;stroke-width:0.5;stroke-linecap:butt;stroke-linejoin:round;stroke:rgb(0%,0%,0%);stroke-opacity:1;stroke-miterlimit:10;" d="M 16.964844 793.730469 C 17.050781 794.226563 16.71875 794.707031 16.21875 794.792969 C 15.71875 794.882813 15.238281 794.546875 15.152344 794.046875 C 15.0625 793.546875 15.398438 793.070313 15.898438 792.980469 C 16.398438 792.894531 16.875 793.226563 16.964844 793.730469 " transform="matrix(1,0,0,-1,-7,833)"/>
<path style="fill-rule:evenodd;fill:rgb(100%,100%,0%);fill-opacity:1;stroke-width:0.5;stroke-linecap:butt;stroke-linejoin:round;stroke:rgb(0%,0%,0%);stroke-opacity:1;stroke-miterlimit:10;" d="M 16.511719 793.808594 C 16.554688 794.058594 16.386719 794.296875 16.136719 794.339844 C 15.886719 794.386719 15.648438 794.21875 15.605469 793.96875 C 15.558594 793.71875 15.726563 793.480469 15.976563 793.433594 C 16.226563 793.390625 16.464844 793.558594 16.511719 793.808594 " transform="matrix(1,0,0,-1,-7,833)"/>
</g>
</svg>
